<mxfile host="app.diagrams.net" modified="2021-06-24T03:28:52.942Z" agent="5.0 (Macintosh; Intel Mac OS X 10_14_0) AppleWebKit/537.36 (KHTML, like Gecko) Chrome/91.0.4472.101 Safari/537.36" etag="VO2ZtUNjmWc5ff62OrCJ" version="14.8.0" type="github">
  <diagram id="w2YfKV74kdbBBfWDP6RA" name="Page-1">
    <mxGraphModel dx="1186" dy="696" grid="1" gridSize="10" guides="1" tooltips="1" connect="1" arrows="1" fold="1" page="1" pageScale="1" pageWidth="827" pageHeight="1169" math="0" shadow="0">
      <root>
        <mxCell id="0" />
        <mxCell id="1" parent="0" />
        <mxCell id="puIDueiWhjBaAkDINTCM-104" value="" style="group" vertex="1" connectable="0" parent="1">
          <mxGeometry x="70" y="380" width="570" height="180" as="geometry" />
        </mxCell>
        <mxCell id="puIDueiWhjBaAkDINTCM-53" value="" style="group" vertex="1" connectable="0" parent="puIDueiWhjBaAkDINTCM-104">
          <mxGeometry y="40" width="120" height="120" as="geometry" />
        </mxCell>
        <mxCell id="puIDueiWhjBaAkDINTCM-16" value="query embedding" style="rounded=0;whiteSpace=wrap;html=1;fillColor=#d5e8d4;strokeColor=#82b366;" vertex="1" parent="puIDueiWhjBaAkDINTCM-53">
          <mxGeometry width="120" height="20" as="geometry" />
        </mxCell>
        <mxCell id="puIDueiWhjBaAkDINTCM-1" value="query map" style="rounded=0;whiteSpace=wrap;html=1;fillColor=#d5e8d4;strokeColor=#82b366;" vertex="1" parent="puIDueiWhjBaAkDINTCM-53">
          <mxGeometry y="40" width="120" height="20" as="geometry" />
        </mxCell>
        <mxCell id="puIDueiWhjBaAkDINTCM-6" value="token embedding" style="rounded=0;whiteSpace=wrap;html=1;" vertex="1" parent="puIDueiWhjBaAkDINTCM-53">
          <mxGeometry y="80" width="120" height="20" as="geometry" />
        </mxCell>
        <mxCell id="puIDueiWhjBaAkDINTCM-54" value="" style="endArrow=classic;html=1;fontColor=#000000;exitX=0.5;exitY=0;exitDx=0;exitDy=0;entryX=0.5;entryY=1;entryDx=0;entryDy=0;" edge="1" parent="puIDueiWhjBaAkDINTCM-53" source="puIDueiWhjBaAkDINTCM-6" target="puIDueiWhjBaAkDINTCM-1">
          <mxGeometry width="50" height="50" relative="1" as="geometry">
            <mxPoint x="310" y="-80" as="sourcePoint" />
            <mxPoint x="360" y="-130" as="targetPoint" />
          </mxGeometry>
        </mxCell>
        <mxCell id="puIDueiWhjBaAkDINTCM-55" value="" style="endArrow=classic;html=1;fontColor=#000000;exitX=0.5;exitY=0;exitDx=0;exitDy=0;entryX=0.5;entryY=1;entryDx=0;entryDy=0;" edge="1" parent="puIDueiWhjBaAkDINTCM-53" source="puIDueiWhjBaAkDINTCM-1" target="puIDueiWhjBaAkDINTCM-16">
          <mxGeometry width="50" height="50" relative="1" as="geometry">
            <mxPoint x="310" y="-80" as="sourcePoint" />
            <mxPoint x="60" y="30" as="targetPoint" />
          </mxGeometry>
        </mxCell>
        <mxCell id="puIDueiWhjBaAkDINTCM-100" value="+" style="text;html=1;resizable=0;autosize=1;align=center;verticalAlign=middle;points=[];fillColor=none;strokeColor=none;rounded=0;fontColor=#000000;" vertex="1" parent="puIDueiWhjBaAkDINTCM-53">
          <mxGeometry x="50" y="100" width="20" height="20" as="geometry" />
        </mxCell>
        <mxCell id="puIDueiWhjBaAkDINTCM-79" value="" style="group" vertex="1" connectable="0" parent="puIDueiWhjBaAkDINTCM-104">
          <mxGeometry x="170" y="40" width="120" height="100" as="geometry" />
        </mxCell>
        <mxCell id="puIDueiWhjBaAkDINTCM-80" value="key embeddings" style="rounded=0;whiteSpace=wrap;html=1;fillColor=#cdeb8b;strokeColor=#36393d;" vertex="1" parent="puIDueiWhjBaAkDINTCM-79">
          <mxGeometry width="120" height="20" as="geometry" />
        </mxCell>
        <mxCell id="puIDueiWhjBaAkDINTCM-81" value="key map" style="rounded=0;whiteSpace=wrap;html=1;fillColor=#cdeb8b;strokeColor=#36393d;" vertex="1" parent="puIDueiWhjBaAkDINTCM-79">
          <mxGeometry y="40" width="120" height="20" as="geometry" />
        </mxCell>
        <mxCell id="puIDueiWhjBaAkDINTCM-82" value="seq embeddings" style="rounded=0;whiteSpace=wrap;html=1;" vertex="1" parent="puIDueiWhjBaAkDINTCM-79">
          <mxGeometry y="80" width="120" height="20" as="geometry" />
        </mxCell>
        <mxCell id="puIDueiWhjBaAkDINTCM-83" value="" style="endArrow=classic;html=1;fontColor=#000000;exitX=0.5;exitY=0;exitDx=0;exitDy=0;entryX=0.5;entryY=1;entryDx=0;entryDy=0;" edge="1" parent="puIDueiWhjBaAkDINTCM-79" source="puIDueiWhjBaAkDINTCM-82" target="puIDueiWhjBaAkDINTCM-81">
          <mxGeometry width="50" height="50" relative="1" as="geometry">
            <mxPoint x="310" y="-80" as="sourcePoint" />
            <mxPoint x="360" y="-130" as="targetPoint" />
          </mxGeometry>
        </mxCell>
        <mxCell id="puIDueiWhjBaAkDINTCM-84" value="" style="endArrow=classic;html=1;fontColor=#000000;exitX=0.5;exitY=0;exitDx=0;exitDy=0;entryX=0.5;entryY=1;entryDx=0;entryDy=0;" edge="1" parent="puIDueiWhjBaAkDINTCM-79" source="puIDueiWhjBaAkDINTCM-81" target="puIDueiWhjBaAkDINTCM-80">
          <mxGeometry width="50" height="50" relative="1" as="geometry">
            <mxPoint x="310" y="-80" as="sourcePoint" />
            <mxPoint x="60" y="30" as="targetPoint" />
          </mxGeometry>
        </mxCell>
        <mxCell id="puIDueiWhjBaAkDINTCM-85" value="X" style="text;html=1;resizable=0;autosize=1;align=center;verticalAlign=middle;points=[];fillColor=none;strokeColor=none;rounded=0;fontColor=#000000;" vertex="1" parent="puIDueiWhjBaAkDINTCM-104">
          <mxGeometry x="134" y="40" width="20" height="20" as="geometry" />
        </mxCell>
        <mxCell id="puIDueiWhjBaAkDINTCM-86" value="attention" style="rounded=0;whiteSpace=wrap;html=1;fillColor=#f5f5f5;strokeColor=#666666;fontColor=#333333;" vertex="1" parent="puIDueiWhjBaAkDINTCM-104">
          <mxGeometry x="334" y="40" width="86" height="20" as="geometry" />
        </mxCell>
        <mxCell id="puIDueiWhjBaAkDINTCM-87" value="=" style="text;html=1;resizable=0;autosize=1;align=center;verticalAlign=middle;points=[];fillColor=none;strokeColor=none;rounded=0;fontColor=#000000;" vertex="1" parent="puIDueiWhjBaAkDINTCM-104">
          <mxGeometry x="300" y="40" width="20" height="20" as="geometry" />
        </mxCell>
        <mxCell id="puIDueiWhjBaAkDINTCM-88" value="" style="group" vertex="1" connectable="0" parent="puIDueiWhjBaAkDINTCM-104">
          <mxGeometry x="450" y="40" width="120" height="100" as="geometry" />
        </mxCell>
        <mxCell id="puIDueiWhjBaAkDINTCM-89" value="value embeddings" style="rounded=0;whiteSpace=wrap;html=1;fillColor=#ffff88;strokeColor=#36393d;" vertex="1" parent="puIDueiWhjBaAkDINTCM-88">
          <mxGeometry width="120" height="20" as="geometry" />
        </mxCell>
        <mxCell id="puIDueiWhjBaAkDINTCM-90" value="value map" style="rounded=0;whiteSpace=wrap;html=1;fillColor=#ffff88;strokeColor=#36393d;" vertex="1" parent="puIDueiWhjBaAkDINTCM-88">
          <mxGeometry y="40" width="120" height="20" as="geometry" />
        </mxCell>
        <mxCell id="puIDueiWhjBaAkDINTCM-91" value="seq embeddings" style="rounded=0;whiteSpace=wrap;html=1;" vertex="1" parent="puIDueiWhjBaAkDINTCM-88">
          <mxGeometry y="80" width="120" height="20" as="geometry" />
        </mxCell>
        <mxCell id="puIDueiWhjBaAkDINTCM-92" value="" style="endArrow=classic;html=1;fontColor=#000000;exitX=0.5;exitY=0;exitDx=0;exitDy=0;entryX=0.5;entryY=1;entryDx=0;entryDy=0;" edge="1" parent="puIDueiWhjBaAkDINTCM-88" source="puIDueiWhjBaAkDINTCM-91" target="puIDueiWhjBaAkDINTCM-90">
          <mxGeometry width="50" height="50" relative="1" as="geometry">
            <mxPoint x="310" y="-80" as="sourcePoint" />
            <mxPoint x="360" y="-130" as="targetPoint" />
          </mxGeometry>
        </mxCell>
        <mxCell id="puIDueiWhjBaAkDINTCM-93" value="" style="endArrow=classic;html=1;fontColor=#000000;exitX=0.5;exitY=0;exitDx=0;exitDy=0;entryX=0.5;entryY=1;entryDx=0;entryDy=0;" edge="1" parent="puIDueiWhjBaAkDINTCM-88" source="puIDueiWhjBaAkDINTCM-90" target="puIDueiWhjBaAkDINTCM-89">
          <mxGeometry width="50" height="50" relative="1" as="geometry">
            <mxPoint x="310" y="-80" as="sourcePoint" />
            <mxPoint x="60" y="30" as="targetPoint" />
          </mxGeometry>
        </mxCell>
        <mxCell id="puIDueiWhjBaAkDINTCM-94" value="X" style="text;html=1;resizable=0;autosize=1;align=center;verticalAlign=middle;points=[];fillColor=none;strokeColor=none;rounded=0;fontColor=#000000;" vertex="1" parent="puIDueiWhjBaAkDINTCM-104">
          <mxGeometry x="430" y="40" width="20" height="20" as="geometry" />
        </mxCell>
        <mxCell id="puIDueiWhjBaAkDINTCM-95" value="token embedding" style="rounded=0;whiteSpace=wrap;html=1;fillColor=#008a00;strokeColor=#005700;fontColor=#ffffff;" vertex="1" parent="puIDueiWhjBaAkDINTCM-104">
          <mxGeometry x="450" width="120" height="20" as="geometry" />
        </mxCell>
        <mxCell id="puIDueiWhjBaAkDINTCM-97" value="" style="endArrow=classic;html=1;fontColor=#000000;exitX=0.5;exitY=0;exitDx=0;exitDy=0;entryX=0.5;entryY=1;entryDx=0;entryDy=0;" edge="1" parent="puIDueiWhjBaAkDINTCM-104" source="puIDueiWhjBaAkDINTCM-89" target="puIDueiWhjBaAkDINTCM-95">
          <mxGeometry width="50" height="50" relative="1" as="geometry">
            <mxPoint x="290" y="-30" as="sourcePoint" />
            <mxPoint x="340" y="-80" as="targetPoint" />
          </mxGeometry>
        </mxCell>
        <mxCell id="puIDueiWhjBaAkDINTCM-98" value="position constant" style="rounded=0;whiteSpace=wrap;html=1;" vertex="1" parent="puIDueiWhjBaAkDINTCM-104">
          <mxGeometry y="160" width="120" height="20" as="geometry" />
        </mxCell>
        <mxCell id="puIDueiWhjBaAkDINTCM-99" value="position constants" style="rounded=0;whiteSpace=wrap;html=1;" vertex="1" parent="puIDueiWhjBaAkDINTCM-104">
          <mxGeometry x="170" y="160" width="120" height="20" as="geometry" />
        </mxCell>
        <mxCell id="puIDueiWhjBaAkDINTCM-101" value="+" style="text;html=1;resizable=0;autosize=1;align=center;verticalAlign=middle;points=[];fillColor=none;strokeColor=none;rounded=0;fontColor=#000000;" vertex="1" parent="puIDueiWhjBaAkDINTCM-104">
          <mxGeometry x="220" y="140" width="20" height="20" as="geometry" />
        </mxCell>
        <mxCell id="puIDueiWhjBaAkDINTCM-102" value="position constants" style="rounded=0;whiteSpace=wrap;html=1;" vertex="1" parent="puIDueiWhjBaAkDINTCM-104">
          <mxGeometry x="450" y="160" width="120" height="20" as="geometry" />
        </mxCell>
        <mxCell id="puIDueiWhjBaAkDINTCM-103" value="+" style="text;html=1;resizable=0;autosize=1;align=center;verticalAlign=middle;points=[];fillColor=none;strokeColor=none;rounded=0;fontColor=#000000;" vertex="1" parent="puIDueiWhjBaAkDINTCM-104">
          <mxGeometry x="500" y="140" width="20" height="20" as="geometry" />
        </mxCell>
        <mxCell id="puIDueiWhjBaAkDINTCM-105" value="" style="group" vertex="1" connectable="0" parent="1">
          <mxGeometry x="70" y="20" width="730" height="310" as="geometry" />
        </mxCell>
        <mxCell id="puIDueiWhjBaAkDINTCM-23" value="key embeddings" style="rounded=0;whiteSpace=wrap;html=1;fillColor=#cdeb8b;strokeColor=#36393d;" vertex="1" parent="puIDueiWhjBaAkDINTCM-105">
          <mxGeometry x="150" y="101" width="120" height="20" as="geometry" />
        </mxCell>
        <mxCell id="puIDueiWhjBaAkDINTCM-25" value="" style="group" vertex="1" connectable="0" parent="puIDueiWhjBaAkDINTCM-105">
          <mxGeometry y="80" width="120" height="62" as="geometry" />
        </mxCell>
        <mxCell id="puIDueiWhjBaAkDINTCM-11" value="query embedding" style="rounded=0;whiteSpace=wrap;html=1;fillColor=#d5e8d4;strokeColor=#82b366;" vertex="1" parent="puIDueiWhjBaAkDINTCM-25">
          <mxGeometry width="120" height="20" as="geometry" />
        </mxCell>
        <mxCell id="puIDueiWhjBaAkDINTCM-15" value="semantic bias" style="rounded=0;whiteSpace=wrap;html=1;fillColor=#f8cecc;strokeColor=#b85450;" vertex="1" parent="puIDueiWhjBaAkDINTCM-25">
          <mxGeometry y="42" width="120" height="20" as="geometry" />
        </mxCell>
        <mxCell id="puIDueiWhjBaAkDINTCM-19" value="+" style="rounded=0;whiteSpace=wrap;html=1;strokeColor=#FFFFFF;" vertex="1" parent="puIDueiWhjBaAkDINTCM-25">
          <mxGeometry y="21" width="120" height="20" as="geometry" />
        </mxCell>
        <mxCell id="puIDueiWhjBaAkDINTCM-26" value="" style="group" vertex="1" connectable="0" parent="puIDueiWhjBaAkDINTCM-105">
          <mxGeometry y="170" width="120" height="60" as="geometry" />
        </mxCell>
        <mxCell id="puIDueiWhjBaAkDINTCM-21" value="+" style="rounded=0;whiteSpace=wrap;html=1;strokeColor=#FFFFFF;" vertex="1" parent="puIDueiWhjBaAkDINTCM-26">
          <mxGeometry y="20" width="120" height="20" as="geometry" />
        </mxCell>
        <mxCell id="puIDueiWhjBaAkDINTCM-12" value="position bias" style="rounded=0;whiteSpace=wrap;html=1;fillColor=#f8cecc;strokeColor=#b85450;" vertex="1" parent="puIDueiWhjBaAkDINTCM-26">
          <mxGeometry width="120" height="20" as="geometry" />
        </mxCell>
        <mxCell id="puIDueiWhjBaAkDINTCM-14" value="query embedding" style="rounded=0;whiteSpace=wrap;html=1;fillColor=#d5e8d4;strokeColor=#82b366;" vertex="1" parent="puIDueiWhjBaAkDINTCM-26">
          <mxGeometry y="40" width="120" height="20" as="geometry" />
        </mxCell>
        <mxCell id="puIDueiWhjBaAkDINTCM-28" value="position embeddings" style="rounded=0;whiteSpace=wrap;html=1;fillColor=#cdeb8b;strokeColor=#36393d;" vertex="1" parent="puIDueiWhjBaAkDINTCM-105">
          <mxGeometry x="150" y="190" width="120" height="20" as="geometry" />
        </mxCell>
        <mxCell id="puIDueiWhjBaAkDINTCM-30" value="X" style="text;html=1;resizable=0;autosize=1;align=center;verticalAlign=middle;points=[];fillColor=none;strokeColor=none;rounded=0;fontColor=#000000;" vertex="1" parent="puIDueiWhjBaAkDINTCM-105">
          <mxGeometry x="130" y="101" width="20" height="20" as="geometry" />
        </mxCell>
        <mxCell id="puIDueiWhjBaAkDINTCM-32" value="X" style="text;html=1;resizable=0;autosize=1;align=center;verticalAlign=middle;points=[];fillColor=none;strokeColor=none;rounded=0;fontColor=#000000;" vertex="1" parent="puIDueiWhjBaAkDINTCM-105">
          <mxGeometry x="130" y="190" width="20" height="20" as="geometry" />
        </mxCell>
        <mxCell id="puIDueiWhjBaAkDINTCM-33" value="semantic attention" style="rounded=0;whiteSpace=wrap;html=1;fillColor=#f5f5f5;strokeColor=#666666;fontColor=#333333;" vertex="1" parent="puIDueiWhjBaAkDINTCM-105">
          <mxGeometry x="310" y="101" width="120" height="20" as="geometry" />
        </mxCell>
        <mxCell id="puIDueiWhjBaAkDINTCM-34" value="positional attention" style="rounded=0;whiteSpace=wrap;html=1;fillColor=#f5f5f5;strokeColor=#666666;fontColor=#333333;" vertex="1" parent="puIDueiWhjBaAkDINTCM-105">
          <mxGeometry x="310" y="190" width="120" height="20" as="geometry" />
        </mxCell>
        <mxCell id="puIDueiWhjBaAkDINTCM-36" value="=" style="text;html=1;resizable=0;autosize=1;align=center;verticalAlign=middle;points=[];fillColor=none;strokeColor=none;rounded=0;fontColor=#000000;" vertex="1" parent="puIDueiWhjBaAkDINTCM-105">
          <mxGeometry x="280" y="101" width="20" height="20" as="geometry" />
        </mxCell>
        <mxCell id="puIDueiWhjBaAkDINTCM-37" value="=" style="text;html=1;resizable=0;autosize=1;align=center;verticalAlign=middle;points=[];fillColor=none;strokeColor=none;rounded=0;fontColor=#000000;" vertex="1" parent="puIDueiWhjBaAkDINTCM-105">
          <mxGeometry x="280" y="190" width="20" height="20" as="geometry" />
        </mxCell>
        <mxCell id="puIDueiWhjBaAkDINTCM-38" value="+" style="rounded=0;whiteSpace=wrap;html=1;strokeColor=#FFFFFF;" vertex="1" parent="puIDueiWhjBaAkDINTCM-105">
          <mxGeometry x="310" y="143" width="120" height="20" as="geometry" />
        </mxCell>
        <mxCell id="puIDueiWhjBaAkDINTCM-39" value="attention" style="rounded=0;whiteSpace=wrap;html=1;fillColor=#f5f5f5;strokeColor=#666666;fontColor=#333333;" vertex="1" parent="puIDueiWhjBaAkDINTCM-105">
          <mxGeometry x="490" y="143" width="80" height="20" as="geometry" />
        </mxCell>
        <mxCell id="puIDueiWhjBaAkDINTCM-43" value="=" style="text;html=1;resizable=0;autosize=1;align=center;verticalAlign=middle;points=[];fillColor=none;strokeColor=none;rounded=0;fontColor=#000000;" vertex="1" parent="puIDueiWhjBaAkDINTCM-105">
          <mxGeometry x="450" y="143" width="20" height="20" as="geometry" />
        </mxCell>
        <mxCell id="puIDueiWhjBaAkDINTCM-2" value="key map" style="rounded=0;whiteSpace=wrap;html=1;fillColor=#cdeb8b;strokeColor=#36393d;" vertex="1" parent="puIDueiWhjBaAkDINTCM-105">
          <mxGeometry x="150" y="60" width="120" height="20" as="geometry" />
        </mxCell>
        <mxCell id="puIDueiWhjBaAkDINTCM-4" value="position map" style="rounded=0;whiteSpace=wrap;html=1;fillColor=#cdeb8b;strokeColor=#36393d;" vertex="1" parent="puIDueiWhjBaAkDINTCM-105">
          <mxGeometry x="150" y="230" width="120" height="20" as="geometry" />
        </mxCell>
        <mxCell id="puIDueiWhjBaAkDINTCM-60" value="" style="group" vertex="1" connectable="0" parent="puIDueiWhjBaAkDINTCM-105">
          <mxGeometry y="230" width="120" height="80" as="geometry" />
        </mxCell>
        <mxCell id="puIDueiWhjBaAkDINTCM-56" value="query map" style="rounded=0;whiteSpace=wrap;html=1;fillColor=#d5e8d4;strokeColor=#82b366;" vertex="1" parent="puIDueiWhjBaAkDINTCM-60">
          <mxGeometry y="20" width="120" height="20" as="geometry" />
        </mxCell>
        <mxCell id="puIDueiWhjBaAkDINTCM-57" value="token embedding" style="rounded=0;whiteSpace=wrap;html=1;" vertex="1" parent="puIDueiWhjBaAkDINTCM-60">
          <mxGeometry y="60" width="120" height="20" as="geometry" />
        </mxCell>
        <mxCell id="puIDueiWhjBaAkDINTCM-58" value="" style="endArrow=classic;html=1;fontColor=#000000;exitX=0.5;exitY=0;exitDx=0;exitDy=0;entryX=0.5;entryY=1;entryDx=0;entryDy=0;" edge="1" parent="puIDueiWhjBaAkDINTCM-60" source="puIDueiWhjBaAkDINTCM-57" target="puIDueiWhjBaAkDINTCM-56">
          <mxGeometry width="50" height="50" relative="1" as="geometry">
            <mxPoint x="230" y="-560" as="sourcePoint" />
            <mxPoint x="280" y="-610" as="targetPoint" />
          </mxGeometry>
        </mxCell>
        <mxCell id="puIDueiWhjBaAkDINTCM-59" value="" style="endArrow=classic;html=1;fontColor=#000000;exitX=0.5;exitY=0;exitDx=0;exitDy=0;entryX=0.5;entryY=1;entryDx=0;entryDy=0;" edge="1" parent="puIDueiWhjBaAkDINTCM-60" source="puIDueiWhjBaAkDINTCM-56">
          <mxGeometry width="50" height="50" relative="1" as="geometry">
            <mxPoint x="230" y="-560" as="sourcePoint" />
            <mxPoint x="60" as="targetPoint" />
          </mxGeometry>
        </mxCell>
        <mxCell id="puIDueiWhjBaAkDINTCM-61" value="seq embeddings" style="rounded=0;whiteSpace=wrap;html=1;" vertex="1" parent="puIDueiWhjBaAkDINTCM-105">
          <mxGeometry x="150" y="20" width="120" height="20" as="geometry" />
        </mxCell>
        <mxCell id="puIDueiWhjBaAkDINTCM-62" value="" style="endArrow=classic;html=1;fontColor=#000000;entryX=0.5;entryY=0;entryDx=0;entryDy=0;" edge="1" parent="puIDueiWhjBaAkDINTCM-105" target="puIDueiWhjBaAkDINTCM-2">
          <mxGeometry width="50" height="50" relative="1" as="geometry">
            <mxPoint x="210" y="40" as="sourcePoint" />
            <mxPoint x="370" y="210" as="targetPoint" />
          </mxGeometry>
        </mxCell>
        <mxCell id="puIDueiWhjBaAkDINTCM-63" value="" style="endArrow=classic;html=1;fontColor=#000000;exitX=0.5;exitY=1;exitDx=0;exitDy=0;entryX=0.5;entryY=0;entryDx=0;entryDy=0;" edge="1" parent="puIDueiWhjBaAkDINTCM-105" source="puIDueiWhjBaAkDINTCM-2" target="puIDueiWhjBaAkDINTCM-23">
          <mxGeometry width="50" height="50" relative="1" as="geometry">
            <mxPoint x="320" y="260" as="sourcePoint" />
            <mxPoint x="370" y="210" as="targetPoint" />
          </mxGeometry>
        </mxCell>
        <mxCell id="puIDueiWhjBaAkDINTCM-64" value="position constants" style="rounded=0;whiteSpace=wrap;html=1;" vertex="1" parent="puIDueiWhjBaAkDINTCM-105">
          <mxGeometry x="150" y="270" width="120" height="20" as="geometry" />
        </mxCell>
        <mxCell id="puIDueiWhjBaAkDINTCM-65" value="" style="endArrow=classic;html=1;fontColor=#000000;exitX=0.5;exitY=0;exitDx=0;exitDy=0;entryX=0.5;entryY=1;entryDx=0;entryDy=0;" edge="1" parent="puIDueiWhjBaAkDINTCM-105" source="puIDueiWhjBaAkDINTCM-64" target="puIDueiWhjBaAkDINTCM-4">
          <mxGeometry width="50" height="50" relative="1" as="geometry">
            <mxPoint x="320" y="260" as="sourcePoint" />
            <mxPoint x="370" y="210" as="targetPoint" />
          </mxGeometry>
        </mxCell>
        <mxCell id="puIDueiWhjBaAkDINTCM-66" value="" style="endArrow=classic;html=1;fontColor=#000000;entryX=0.5;entryY=1;entryDx=0;entryDy=0;" edge="1" parent="puIDueiWhjBaAkDINTCM-105" target="puIDueiWhjBaAkDINTCM-28">
          <mxGeometry width="50" height="50" relative="1" as="geometry">
            <mxPoint x="210" y="231" as="sourcePoint" />
            <mxPoint x="370" y="210" as="targetPoint" />
          </mxGeometry>
        </mxCell>
        <mxCell id="puIDueiWhjBaAkDINTCM-67" value="token embedding" style="rounded=0;whiteSpace=wrap;html=1;" vertex="1" parent="puIDueiWhjBaAkDINTCM-105">
          <mxGeometry width="120" height="20" as="geometry" />
        </mxCell>
        <mxCell id="puIDueiWhjBaAkDINTCM-68" value="query map" style="rounded=0;whiteSpace=wrap;html=1;fillColor=#d5e8d4;strokeColor=#82b366;" vertex="1" parent="puIDueiWhjBaAkDINTCM-105">
          <mxGeometry y="40" width="120" height="20" as="geometry" />
        </mxCell>
        <mxCell id="puIDueiWhjBaAkDINTCM-70" style="edgeStyle=orthogonalEdgeStyle;rounded=0;orthogonalLoop=1;jettySize=auto;html=1;exitX=0.5;exitY=1;exitDx=0;exitDy=0;entryX=0.5;entryY=0;entryDx=0;entryDy=0;fontColor=#000000;" edge="1" parent="puIDueiWhjBaAkDINTCM-105" source="puIDueiWhjBaAkDINTCM-67" target="puIDueiWhjBaAkDINTCM-68">
          <mxGeometry relative="1" as="geometry" />
        </mxCell>
        <mxCell id="puIDueiWhjBaAkDINTCM-71" value="" style="endArrow=classic;html=1;fontColor=#000000;entryX=0.5;entryY=0;entryDx=0;entryDy=0;exitX=0.5;exitY=1;exitDx=0;exitDy=0;" edge="1" parent="puIDueiWhjBaAkDINTCM-105" source="puIDueiWhjBaAkDINTCM-68" target="puIDueiWhjBaAkDINTCM-11">
          <mxGeometry width="50" height="50" relative="1" as="geometry">
            <mxPoint x="320" y="260" as="sourcePoint" />
            <mxPoint x="370" y="210" as="targetPoint" />
          </mxGeometry>
        </mxCell>
        <mxCell id="puIDueiWhjBaAkDINTCM-76" value="" style="group" vertex="1" connectable="0" parent="puIDueiWhjBaAkDINTCM-105">
          <mxGeometry x="610" y="60" width="120" height="101" as="geometry" />
        </mxCell>
        <mxCell id="puIDueiWhjBaAkDINTCM-24" value="value embeddings" style="rounded=0;whiteSpace=wrap;html=1;fillColor=#ffff88;strokeColor=#36393d;" vertex="1" parent="puIDueiWhjBaAkDINTCM-76">
          <mxGeometry y="80" width="120" height="20" as="geometry" />
        </mxCell>
        <mxCell id="puIDueiWhjBaAkDINTCM-72" value="value map" style="rounded=0;whiteSpace=wrap;html=1;fillColor=#ffff88;strokeColor=#36393d;" vertex="1" parent="puIDueiWhjBaAkDINTCM-76">
          <mxGeometry y="40" width="120" height="20" as="geometry" />
        </mxCell>
        <mxCell id="puIDueiWhjBaAkDINTCM-73" value="seq embeddings" style="rounded=0;whiteSpace=wrap;html=1;" vertex="1" parent="puIDueiWhjBaAkDINTCM-76">
          <mxGeometry width="120" height="20" as="geometry" />
        </mxCell>
        <mxCell id="puIDueiWhjBaAkDINTCM-74" value="" style="endArrow=classic;html=1;fontColor=#000000;entryX=0.5;entryY=0;entryDx=0;entryDy=0;fillColor=#ffff88;strokeColor=#36393d;" edge="1" parent="puIDueiWhjBaAkDINTCM-76" target="puIDueiWhjBaAkDINTCM-72">
          <mxGeometry width="50" height="50" relative="1" as="geometry">
            <mxPoint x="60" y="20" as="sourcePoint" />
            <mxPoint x="220" y="190" as="targetPoint" />
          </mxGeometry>
        </mxCell>
        <mxCell id="puIDueiWhjBaAkDINTCM-75" value="" style="endArrow=classic;html=1;fontColor=#000000;exitX=0.5;exitY=1;exitDx=0;exitDy=0;entryX=0.5;entryY=0;entryDx=0;entryDy=0;fillColor=#ffff88;strokeColor=#36393d;" edge="1" parent="puIDueiWhjBaAkDINTCM-76" source="puIDueiWhjBaAkDINTCM-72">
          <mxGeometry width="50" height="50" relative="1" as="geometry">
            <mxPoint x="170" y="240" as="sourcePoint" />
            <mxPoint x="60" y="81" as="targetPoint" />
          </mxGeometry>
        </mxCell>
        <mxCell id="puIDueiWhjBaAkDINTCM-77" value="X" style="text;html=1;resizable=0;autosize=1;align=center;verticalAlign=middle;points=[];fillColor=none;strokeColor=none;rounded=0;fontColor=#000000;" vertex="1" parent="puIDueiWhjBaAkDINTCM-105">
          <mxGeometry x="580" y="143" width="20" height="20" as="geometry" />
        </mxCell>
        <mxCell id="puIDueiWhjBaAkDINTCM-78" value="token embedding" style="rounded=0;whiteSpace=wrap;html=1;fillColor=#008a00;strokeColor=#005700;fontColor=#ffffff;" vertex="1" parent="puIDueiWhjBaAkDINTCM-105">
          <mxGeometry x="610" y="190" width="120" height="20" as="geometry" />
        </mxCell>
        <mxCell id="puIDueiWhjBaAkDINTCM-96" value="" style="endArrow=classic;html=1;fontColor=#000000;exitX=0.5;exitY=1;exitDx=0;exitDy=0;entryX=0.5;entryY=0;entryDx=0;entryDy=0;" edge="1" parent="puIDueiWhjBaAkDINTCM-105" source="puIDueiWhjBaAkDINTCM-24" target="puIDueiWhjBaAkDINTCM-78">
          <mxGeometry width="50" height="50" relative="1" as="geometry">
            <mxPoint x="300" y="370" as="sourcePoint" />
            <mxPoint x="650" y="230" as="targetPoint" />
          </mxGeometry>
        </mxCell>
        <mxCell id="puIDueiWhjBaAkDINTCM-136" value="" style="group" vertex="1" connectable="0" parent="1">
          <mxGeometry x="50" y="670" width="130" height="392" as="geometry" />
        </mxCell>
        <mxCell id="puIDueiWhjBaAkDINTCM-106" value="input embeddings" style="rounded=1;whiteSpace=wrap;html=1;fontColor=#000000;" vertex="1" parent="puIDueiWhjBaAkDINTCM-136">
          <mxGeometry y="370" width="110" height="30" as="geometry" />
        </mxCell>
        <mxCell id="puIDueiWhjBaAkDINTCM-108" value="muti-head positional attention" style="rounded=1;whiteSpace=wrap;html=1;fillColor=#dae8fc;strokeColor=#6c8ebf;" vertex="1" parent="puIDueiWhjBaAkDINTCM-136">
          <mxGeometry y="300" width="110" height="30" as="geometry" />
        </mxCell>
        <mxCell id="puIDueiWhjBaAkDINTCM-109" value="Feed Forward" style="rounded=1;whiteSpace=wrap;html=1;fillColor=#ffcc99;strokeColor=#36393d;" vertex="1" parent="puIDueiWhjBaAkDINTCM-136">
          <mxGeometry y="250" width="110" height="30" as="geometry" />
        </mxCell>
        <mxCell id="puIDueiWhjBaAkDINTCM-110" value="Linear Projection" style="rounded=1;whiteSpace=wrap;html=1;fillColor=#cdeb8b;strokeColor=#36393d;" vertex="1" parent="puIDueiWhjBaAkDINTCM-136">
          <mxGeometry y="150" width="110" height="30" as="geometry" />
        </mxCell>
        <mxCell id="puIDueiWhjBaAkDINTCM-111" value="" style="endArrow=classic;html=1;fontColor=#000000;exitX=0.5;exitY=0;exitDx=0;exitDy=0;entryX=0.5;entryY=1;entryDx=0;entryDy=0;" edge="1" parent="puIDueiWhjBaAkDINTCM-136" source="puIDueiWhjBaAkDINTCM-106" target="puIDueiWhjBaAkDINTCM-108">
          <mxGeometry width="50" height="50" relative="1" as="geometry">
            <mxPoint x="160" y="190" as="sourcePoint" />
            <mxPoint x="210" y="140" as="targetPoint" />
            <Array as="points">
              <mxPoint x="55" y="360" />
            </Array>
          </mxGeometry>
        </mxCell>
        <mxCell id="puIDueiWhjBaAkDINTCM-114" value="drop out" style="rounded=1;whiteSpace=wrap;html=1;fillColor=#eeeeee;strokeColor=#36393d;" vertex="1" parent="puIDueiWhjBaAkDINTCM-136">
          <mxGeometry y="100" width="110" height="30" as="geometry" />
        </mxCell>
        <mxCell id="puIDueiWhjBaAkDINTCM-115" value="drop out" style="rounded=1;whiteSpace=wrap;html=1;fillColor=#eeeeee;strokeColor=#36393d;" vertex="1" parent="puIDueiWhjBaAkDINTCM-136">
          <mxGeometry y="200" width="110" height="30" as="geometry" />
        </mxCell>
        <mxCell id="puIDueiWhjBaAkDINTCM-117" value="layer norm" style="rounded=1;whiteSpace=wrap;html=1;fillColor=#f5f5f5;strokeColor=#666666;fontColor=#333333;" vertex="1" parent="puIDueiWhjBaAkDINTCM-136">
          <mxGeometry y="48" width="110" height="30" as="geometry" />
        </mxCell>
        <mxCell id="puIDueiWhjBaAkDINTCM-119" value="" style="endArrow=classic;html=1;fontColor=#000000;" edge="1" parent="puIDueiWhjBaAkDINTCM-136" source="puIDueiWhjBaAkDINTCM-114">
          <mxGeometry width="50" height="50" relative="1" as="geometry">
            <mxPoint x="160" y="180" as="sourcePoint" />
            <mxPoint x="55" y="78" as="targetPoint" />
          </mxGeometry>
        </mxCell>
        <mxCell id="puIDueiWhjBaAkDINTCM-120" value="" style="endArrow=classic;html=1;fontColor=#000000;entryX=0.5;entryY=1;entryDx=0;entryDy=0;" edge="1" parent="puIDueiWhjBaAkDINTCM-136" source="puIDueiWhjBaAkDINTCM-110" target="puIDueiWhjBaAkDINTCM-114">
          <mxGeometry width="50" height="50" relative="1" as="geometry">
            <mxPoint x="160" y="180" as="sourcePoint" />
            <mxPoint x="210" y="130" as="targetPoint" />
          </mxGeometry>
        </mxCell>
        <mxCell id="puIDueiWhjBaAkDINTCM-121" value="" style="endArrow=classic;html=1;fontColor=#000000;entryX=0.5;entryY=1;entryDx=0;entryDy=0;exitX=0.5;exitY=0;exitDx=0;exitDy=0;" edge="1" parent="puIDueiWhjBaAkDINTCM-136" source="puIDueiWhjBaAkDINTCM-115" target="puIDueiWhjBaAkDINTCM-110">
          <mxGeometry width="50" height="50" relative="1" as="geometry">
            <mxPoint x="160" y="180" as="sourcePoint" />
            <mxPoint x="210" y="130" as="targetPoint" />
          </mxGeometry>
        </mxCell>
        <mxCell id="puIDueiWhjBaAkDINTCM-122" value="" style="endArrow=classic;html=1;fontColor=#000000;entryX=0.5;entryY=1;entryDx=0;entryDy=0;" edge="1" parent="puIDueiWhjBaAkDINTCM-136" source="puIDueiWhjBaAkDINTCM-109" target="puIDueiWhjBaAkDINTCM-115">
          <mxGeometry width="50" height="50" relative="1" as="geometry">
            <mxPoint x="160" y="180" as="sourcePoint" />
            <mxPoint x="210" y="130" as="targetPoint" />
          </mxGeometry>
        </mxCell>
        <mxCell id="puIDueiWhjBaAkDINTCM-123" value="" style="endArrow=classic;html=1;fontColor=#000000;entryX=0.5;entryY=1;entryDx=0;entryDy=0;exitX=0.5;exitY=0;exitDx=0;exitDy=0;" edge="1" parent="puIDueiWhjBaAkDINTCM-136" source="puIDueiWhjBaAkDINTCM-108" target="puIDueiWhjBaAkDINTCM-109">
          <mxGeometry width="50" height="50" relative="1" as="geometry">
            <mxPoint x="160" y="180" as="sourcePoint" />
            <mxPoint x="210" y="130" as="targetPoint" />
          </mxGeometry>
        </mxCell>
        <mxCell id="puIDueiWhjBaAkDINTCM-133" value="" style="endArrow=block;endFill=1;html=1;edgeStyle=orthogonalEdgeStyle;align=left;verticalAlign=top;fontColor=#000000;" edge="1" parent="puIDueiWhjBaAkDINTCM-136">
          <mxGeometry x="-1" y="20" relative="1" as="geometry">
            <mxPoint x="55" y="346" as="sourcePoint" />
            <mxPoint x="55" y="76" as="targetPoint" />
            <Array as="points">
              <mxPoint x="130" y="346" />
              <mxPoint x="130" y="90" />
              <mxPoint x="55" y="90" />
            </Array>
            <mxPoint as="offset" />
          </mxGeometry>
        </mxCell>
        <mxCell id="puIDueiWhjBaAkDINTCM-135" value="output embeddings" style="rounded=1;whiteSpace=wrap;html=1;fontColor=#000000;" vertex="1" parent="puIDueiWhjBaAkDINTCM-136">
          <mxGeometry y="-21" width="110" height="30" as="geometry" />
        </mxCell>
        <mxCell id="puIDueiWhjBaAkDINTCM-137" value="" style="endArrow=classic;html=1;fontColor=#000000;entryX=0.5;entryY=1;entryDx=0;entryDy=0;exitX=0.5;exitY=0;exitDx=0;exitDy=0;" edge="1" parent="puIDueiWhjBaAkDINTCM-136" source="puIDueiWhjBaAkDINTCM-117" target="puIDueiWhjBaAkDINTCM-135">
          <mxGeometry width="50" height="50" relative="1" as="geometry">
            <mxPoint x="160" y="140" as="sourcePoint" />
            <mxPoint x="210" y="90" as="targetPoint" />
          </mxGeometry>
        </mxCell>
        <mxCell id="puIDueiWhjBaAkDINTCM-138" value="" style="rounded=1;whiteSpace=wrap;html=1;fontColor=#000000;arcSize=8;strokeWidth=0.5;fillColor=#E6E6E6;" vertex="1" parent="1">
          <mxGeometry x="408" y="780" width="176" height="330" as="geometry" />
        </mxCell>
        <mxCell id="puIDueiWhjBaAkDINTCM-156" value="" style="group" vertex="1" connectable="0" parent="1">
          <mxGeometry x="440" y="750" width="130" height="392" as="geometry" />
        </mxCell>
        <mxCell id="puIDueiWhjBaAkDINTCM-157" value="input embeddings" style="rounded=1;whiteSpace=wrap;html=1;fontColor=#000000;" vertex="1" parent="puIDueiWhjBaAkDINTCM-156">
          <mxGeometry y="381" width="110" height="30" as="geometry" />
        </mxCell>
        <mxCell id="puIDueiWhjBaAkDINTCM-158" value="muti-head positional attention" style="rounded=1;whiteSpace=wrap;html=1;fillColor=#dae8fc;strokeColor=#6c8ebf;" vertex="1" parent="puIDueiWhjBaAkDINTCM-156">
          <mxGeometry y="300" width="110" height="30" as="geometry" />
        </mxCell>
        <mxCell id="puIDueiWhjBaAkDINTCM-159" value="Feed Forward" style="rounded=1;whiteSpace=wrap;html=1;fillColor=#ffcc99;strokeColor=#36393d;" vertex="1" parent="puIDueiWhjBaAkDINTCM-156">
          <mxGeometry y="250" width="110" height="30" as="geometry" />
        </mxCell>
        <mxCell id="puIDueiWhjBaAkDINTCM-160" value="Linear Projection" style="rounded=1;whiteSpace=wrap;html=1;fillColor=#cdeb8b;strokeColor=#36393d;" vertex="1" parent="puIDueiWhjBaAkDINTCM-156">
          <mxGeometry y="150" width="110" height="30" as="geometry" />
        </mxCell>
        <mxCell id="puIDueiWhjBaAkDINTCM-161" value="" style="endArrow=classic;html=1;fontColor=#000000;exitX=0.5;exitY=0;exitDx=0;exitDy=0;entryX=0.5;entryY=1;entryDx=0;entryDy=0;" edge="1" parent="puIDueiWhjBaAkDINTCM-156" source="puIDueiWhjBaAkDINTCM-157" target="puIDueiWhjBaAkDINTCM-158">
          <mxGeometry width="50" height="50" relative="1" as="geometry">
            <mxPoint x="160" y="190" as="sourcePoint" />
            <mxPoint x="210" y="140" as="targetPoint" />
            <Array as="points">
              <mxPoint x="55" y="360" />
            </Array>
          </mxGeometry>
        </mxCell>
        <mxCell id="puIDueiWhjBaAkDINTCM-162" value="drop out" style="rounded=1;whiteSpace=wrap;html=1;fillColor=#eeeeee;strokeColor=#36393d;" vertex="1" parent="puIDueiWhjBaAkDINTCM-156">
          <mxGeometry y="100" width="110" height="30" as="geometry" />
        </mxCell>
        <mxCell id="puIDueiWhjBaAkDINTCM-163" value="drop out" style="rounded=1;whiteSpace=wrap;html=1;fillColor=#eeeeee;strokeColor=#36393d;" vertex="1" parent="puIDueiWhjBaAkDINTCM-156">
          <mxGeometry y="200" width="110" height="30" as="geometry" />
        </mxCell>
        <mxCell id="puIDueiWhjBaAkDINTCM-164" value="layer norm" style="rounded=1;whiteSpace=wrap;html=1;fillColor=#f5f5f5;strokeColor=#666666;fontColor=#333333;" vertex="1" parent="puIDueiWhjBaAkDINTCM-156">
          <mxGeometry y="48" width="110" height="30" as="geometry" />
        </mxCell>
        <mxCell id="puIDueiWhjBaAkDINTCM-165" value="" style="endArrow=classic;html=1;fontColor=#000000;" edge="1" parent="puIDueiWhjBaAkDINTCM-156" source="puIDueiWhjBaAkDINTCM-162">
          <mxGeometry width="50" height="50" relative="1" as="geometry">
            <mxPoint x="160" y="180" as="sourcePoint" />
            <mxPoint x="55" y="78" as="targetPoint" />
          </mxGeometry>
        </mxCell>
        <mxCell id="puIDueiWhjBaAkDINTCM-166" value="" style="endArrow=classic;html=1;fontColor=#000000;entryX=0.5;entryY=1;entryDx=0;entryDy=0;" edge="1" parent="puIDueiWhjBaAkDINTCM-156" source="puIDueiWhjBaAkDINTCM-160" target="puIDueiWhjBaAkDINTCM-162">
          <mxGeometry width="50" height="50" relative="1" as="geometry">
            <mxPoint x="160" y="180" as="sourcePoint" />
            <mxPoint x="210" y="130" as="targetPoint" />
          </mxGeometry>
        </mxCell>
        <mxCell id="puIDueiWhjBaAkDINTCM-167" value="" style="endArrow=classic;html=1;fontColor=#000000;entryX=0.5;entryY=1;entryDx=0;entryDy=0;exitX=0.5;exitY=0;exitDx=0;exitDy=0;" edge="1" parent="puIDueiWhjBaAkDINTCM-156" source="puIDueiWhjBaAkDINTCM-163" target="puIDueiWhjBaAkDINTCM-160">
          <mxGeometry width="50" height="50" relative="1" as="geometry">
            <mxPoint x="160" y="180" as="sourcePoint" />
            <mxPoint x="210" y="130" as="targetPoint" />
          </mxGeometry>
        </mxCell>
        <mxCell id="puIDueiWhjBaAkDINTCM-168" value="" style="endArrow=classic;html=1;fontColor=#000000;entryX=0.5;entryY=1;entryDx=0;entryDy=0;" edge="1" parent="puIDueiWhjBaAkDINTCM-156" source="puIDueiWhjBaAkDINTCM-159" target="puIDueiWhjBaAkDINTCM-163">
          <mxGeometry width="50" height="50" relative="1" as="geometry">
            <mxPoint x="160" y="180" as="sourcePoint" />
            <mxPoint x="210" y="130" as="targetPoint" />
          </mxGeometry>
        </mxCell>
        <mxCell id="puIDueiWhjBaAkDINTCM-169" value="" style="endArrow=classic;html=1;fontColor=#000000;entryX=0.5;entryY=1;entryDx=0;entryDy=0;exitX=0.5;exitY=0;exitDx=0;exitDy=0;" edge="1" parent="puIDueiWhjBaAkDINTCM-156" source="puIDueiWhjBaAkDINTCM-158" target="puIDueiWhjBaAkDINTCM-159">
          <mxGeometry width="50" height="50" relative="1" as="geometry">
            <mxPoint x="160" y="180" as="sourcePoint" />
            <mxPoint x="210" y="130" as="targetPoint" />
          </mxGeometry>
        </mxCell>
        <mxCell id="puIDueiWhjBaAkDINTCM-170" value="" style="endArrow=block;endFill=1;html=1;edgeStyle=orthogonalEdgeStyle;align=left;verticalAlign=top;fontColor=#000000;" edge="1" parent="puIDueiWhjBaAkDINTCM-156">
          <mxGeometry x="-1" y="20" relative="1" as="geometry">
            <mxPoint x="55" y="346" as="sourcePoint" />
            <mxPoint x="55" y="76" as="targetPoint" />
            <Array as="points">
              <mxPoint x="130" y="346" />
              <mxPoint x="130" y="90" />
              <mxPoint x="55" y="90" />
            </Array>
            <mxPoint as="offset" />
          </mxGeometry>
        </mxCell>
        <mxCell id="puIDueiWhjBaAkDINTCM-171" value="output embeddings" style="rounded=1;whiteSpace=wrap;html=1;fontColor=#000000;" vertex="1" parent="puIDueiWhjBaAkDINTCM-156">
          <mxGeometry y="-21" width="110" height="30" as="geometry" />
        </mxCell>
        <mxCell id="puIDueiWhjBaAkDINTCM-172" value="" style="endArrow=classic;html=1;fontColor=#000000;entryX=0.5;entryY=1;entryDx=0;entryDy=0;exitX=0.5;exitY=0;exitDx=0;exitDy=0;" edge="1" parent="puIDueiWhjBaAkDINTCM-156" source="puIDueiWhjBaAkDINTCM-164" target="puIDueiWhjBaAkDINTCM-171">
          <mxGeometry width="50" height="50" relative="1" as="geometry">
            <mxPoint x="160" y="140" as="sourcePoint" />
            <mxPoint x="210" y="90" as="targetPoint" />
          </mxGeometry>
        </mxCell>
        <mxCell id="puIDueiWhjBaAkDINTCM-173" value="Encode Layer x Layers" style="text;html=1;resizable=0;autosize=1;align=center;verticalAlign=middle;points=[];fillColor=none;strokeColor=none;rounded=0;fontColor=#000000;" vertex="1" parent="1">
          <mxGeometry x="250" y="870" width="140" height="20" as="geometry" />
        </mxCell>
        <mxCell id="puIDueiWhjBaAkDINTCM-174" value="softmax" style="rounded=1;whiteSpace=wrap;html=1;fontColor=#000000;" vertex="1" parent="1">
          <mxGeometry x="440" y="630" width="110" height="30" as="geometry" />
        </mxCell>
        <mxCell id="puIDueiWhjBaAkDINTCM-175" value="Linear Projection" style="rounded=1;whiteSpace=wrap;html=1;fillColor=#cdeb8b;strokeColor=#36393d;" vertex="1" parent="1">
          <mxGeometry x="440" y="680" width="110" height="30" as="geometry" />
        </mxCell>
        <mxCell id="puIDueiWhjBaAkDINTCM-177" value="one hot label" style="rounded=1;whiteSpace=wrap;html=1;fontColor=#000000;" vertex="1" parent="1">
          <mxGeometry x="440" y="580" width="110" height="30" as="geometry" />
        </mxCell>
        <mxCell id="puIDueiWhjBaAkDINTCM-178" value="" style="endArrow=classic;html=1;fontColor=#000000;entryX=0.5;entryY=1;entryDx=0;entryDy=0;exitX=0.5;exitY=0;exitDx=0;exitDy=0;" edge="1" parent="1" source="puIDueiWhjBaAkDINTCM-171" target="puIDueiWhjBaAkDINTCM-175">
          <mxGeometry width="50" height="50" relative="1" as="geometry">
            <mxPoint x="370" y="810" as="sourcePoint" />
            <mxPoint x="420" y="760" as="targetPoint" />
          </mxGeometry>
        </mxCell>
        <mxCell id="puIDueiWhjBaAkDINTCM-179" value="" style="endArrow=classic;html=1;fontColor=#000000;entryX=0.5;entryY=1;entryDx=0;entryDy=0;exitX=0.5;exitY=0;exitDx=0;exitDy=0;" edge="1" parent="1" source="puIDueiWhjBaAkDINTCM-175" target="puIDueiWhjBaAkDINTCM-174">
          <mxGeometry width="50" height="50" relative="1" as="geometry">
            <mxPoint x="370" y="810" as="sourcePoint" />
            <mxPoint x="420" y="760" as="targetPoint" />
          </mxGeometry>
        </mxCell>
        <mxCell id="puIDueiWhjBaAkDINTCM-181" value="" style="endArrow=classic;html=1;fontColor=#000000;entryX=0.5;entryY=1;entryDx=0;entryDy=0;exitX=0.5;exitY=0;exitDx=0;exitDy=0;" edge="1" parent="1" source="puIDueiWhjBaAkDINTCM-174" target="puIDueiWhjBaAkDINTCM-177">
          <mxGeometry width="50" height="50" relative="1" as="geometry">
            <mxPoint x="490" y="630" as="sourcePoint" />
            <mxPoint x="420" y="820" as="targetPoint" />
          </mxGeometry>
        </mxCell>
        <mxCell id="puIDueiWhjBaAkDINTCM-182" value="逼近" style="text;html=1;resizable=0;autosize=1;align=center;verticalAlign=middle;points=[];fillColor=none;strokeColor=none;rounded=0;fontColor=#000000;" vertex="1" parent="1">
          <mxGeometry x="450" y="610" width="40" height="20" as="geometry" />
        </mxCell>
      </root>
    </mxGraphModel>
  </diagram>
</mxfile>
